<svg xmlns="http://www.w3.org/2000/svg" viewBox="0 0 297.75 43.93"><defs><style>.cls-1{fill:#fff;}</style></defs><title>unipi-logo-white</title><g id="Layer_2" data-name="Layer 2"><g id="Layer_1-2" data-name="Layer 1"><path class="cls-1" d="M34.69,24.34a15.1,15.1,0,1,1-30.19,0v-15H0v15a19.6,19.6,0,0,0,39.19,0v-15h-4.5Z"/><path class="cls-1" d="M8.41,23.78a11.19,11.19,0,1,0,22.37,0V9.36h-4.5V23.78a6.69,6.69,0,1,1-13.37,0V0H0V4.5H8.41Z"/><path class="cls-1" d="M17.35,0V23.4a2.25,2.25,0,1,0,4.49,0V4.5H39.19V0H17.35Z"/><path class="cls-1" d="M68.41,27.66c0,1.78,0,3.9,0,5.36H64.09C64,32.53,64,31.5,64,30.68c-1,1.92-2.71,2.77-5.24,2.77-3.54,0-6.13-2-6.13-6.81v-12H57V25.73c0,2.16.68,4,3.17,4,2.68,0,3.76-1.45,3.76-5.42V14.6h4.45Z"/><path class="cls-1" d="M72.41,19.24c0-1.58,0-3.26,0-4.64h4.32a23.45,23.45,0,0,1,.17,2.58c.67-1.31,2.16-3,5.5-3,3.62,0,6.12,2.37,6.12,7.09V33H84V21.77c0-2.31-.83-3.93-3.27-3.93-2.6,0-3.9,1.68-3.9,5.09V33H72.41Z"/><path class="cls-1" d="M92.42,6.81h4.45v4.36H92.42Zm0,7.79h4.45V33H92.42Z"/><path class="cls-1" d="M105.27,31.17v9h-4.43V19.06c0-1.5,0-3,0-4.46h4.32a23.46,23.46,0,0,1,.15,2.5,6,6,0,0,1,5.58-2.93c4.18,0,7.34,3.5,7.34,9.17,0,6.53-3.57,10.11-8,10.11C107.44,33.45,106,32.38,105.27,31.17Zm8.38-7.65c0-3.56-1.5-5.72-4.17-5.72-3.21,0-4.39,2-4.39,6,0,3.8,1,6.05,4.16,6.05C112.18,29.86,113.65,27.53,113.65,23.52Z"/><path class="cls-1" d="M121.05,6.81h4.45v4.36h-4.45Zm0,7.79h4.45V33h-4.45Z"/><path class="cls-1" d="M133.08,14.61h3.3V9h2.45v5.59h4.23v2.12h-4.23v11.4c0,1.94.44,3,2.15,3a6.8,6.8,0,0,0,1.77-.19v2a7.19,7.19,0,0,1-2.49.34c-2.58,0-3.88-1.32-3.88-4.31V16.73h-3.3Z"/><path class="cls-1" d="M146.59,24.18c0,4.28,2.19,7.09,5.53,7.09A4.75,4.75,0,0,0,157,28.1h2.48A7.24,7.24,0,0,1,152,33.42c-5.68,0-7.93-4.76-7.93-9.45,0-5.35,2.67-9.8,8.14-9.8,5.78,0,7.64,4.83,7.64,8.5,0,.53,0,1,0,1.51Zm10.8-1.9c0-3.36-1.81-6-5.2-6s-5.12,2.46-5.49,6Z"/><path class="cls-1" d="M177.47,27.48c-.83,3.2-3,5.94-7.34,5.94-4.8,0-8-3.52-8-9.54,0-5.11,2.8-9.71,8.24-9.71a6.7,6.7,0,0,1,7.11,6H175a4.57,4.57,0,0,0-4.71-3.85c-3.6,0-5.64,3.07-5.64,7.47s1.93,7.49,5.48,7.49c2.51,0,4-1.3,4.86-3.8Z"/><path class="cls-1" d="M183.07,6.12V17.53A6.29,6.29,0,0,1,189,14.17c2.76,0,6.2,1.46,6.2,7.11V33h-2.44V21.72c0-3.4-1.5-5.31-4.38-5.31-3.48,0-5.29,2.21-5.29,6.42V33h-2.45V6.12Z"/><path class="cls-1" d="M200,19.24c0-1.61,0-3.18,0-4.63h2.38c.08.57.13,2.75.1,3.28a5.9,5.9,0,0,1,6-3.72c3.34,0,6.15,2,6.15,7V33h-2.44V21.46c0-3-1.24-5.05-4.26-5.05-4,0-5.41,3.18-5.41,7V33H200Z"/><path class="cls-1" d="M234.69,23.76c0,5.19-2.92,9.66-8.46,9.66-5.1,0-8.23-4.08-8.23-9.61,0-5.33,3-9.64,8.42-9.64C231.41,14.17,234.69,18,234.69,23.76Zm-14.14,0c0,4.21,2.19,7.47,5.82,7.47s5.77-3.05,5.77-7.47c0-4.24-2.06-7.48-5.85-7.48S220.55,19.49,220.55,23.8Z"/><path class="cls-1" d="M238.12,33V6.12h2.45V33Z"/><path class="cls-1" d="M260.72,23.76c0,5.19-2.93,9.66-8.47,9.66-5.09,0-8.22-4.08-8.22-9.61,0-5.33,3-9.64,8.42-9.64C257.43,14.17,260.72,18,260.72,23.76Zm-14.14,0c0,4.21,2.19,7.47,5.81,7.47s5.78-3.05,5.78-7.47c0-4.24-2.06-7.48-5.85-7.48S246.58,19.49,246.58,23.8Z"/><path class="cls-1" d="M278.94,31.55c0,5.88-2.53,9.09-8.16,9.09-5.14,0-7-2.88-7.39-5.54h2.49c.61,2.29,2.49,3.44,5,3.44,4.5,0,5.69-2.88,5.69-7.35V29.47c-1,2.24-2.73,3.47-5.95,3.47-4.4,0-7.61-3.58-7.61-9.13,0-6.09,3.51-9.64,7.9-9.64,3.63,0,5.19,1.71,5.66,3.07,0-1,.09-2.21.13-2.63H279c0,.85-.07,3.55-.07,5.32Zm-13.37-7.84c0,4.14,2.18,7.06,5.47,7.06,4.31,0,5.59-2.87,5.59-7.33s-1.29-7.1-5.48-7.1C267.3,16.34,265.57,19.61,265.57,23.71Z"/><path class="cls-1" d="M284.28,14.61c3.37,9.73,5,14.31,5.56,16.24h0c.67-2.17,2.06-6.4,5.37-16.24h2.5L291,34c-1.91,5.41-3.26,6.69-6.77,6.69a14.14,14.14,0,0,1-1.82-.12V38.26a11.56,11.56,0,0,0,1.59.11c2.5,0,3.36-1.17,4.59-4.63l-6.95-19.13Z"/></g></g></svg>