<?xml version="1.0" encoding="utf-8"?>
<!-- Generator: Adobe Illustrator 23.0.3, SVG Export Plug-In . SVG Version: 6.00 Build 0)  -->
<svg version="1.1" id="Vrstva_1" xmlns="http://www.w3.org/2000/svg" xmlns:xlink="http://www.w3.org/1999/xlink" x="0px" y="0px"
	 viewBox="0 0 362 53.9" style="enable-background:new 0 0 362 53.9;" xml:space="preserve">
<style type="text/css">
	.st0{fill:#1275BC;}
	.st1{fill:#3D519E;}
	.st2{fill:#231F20;}
</style>
<title>unipi-logo-cmyk</title>
<g id="Layer_2">
	<g id="Layer_1-2">
		<path class="st0" d="M42.2,29.6c0.2,10.1-7.8,18.5-17.9,18.8S5.7,40.6,5.5,30.4c0-0.3,0-0.6,0-0.9V11.4H0v18.2
			c-0.3,13.2,10.2,24,23.3,24.3c13.2,0.3,24-10.2,24.3-23.3c0-0.3,0-0.7,0-1V11.4h-5.5V29.6z"/>
		<path class="st0" d="M10.2,28.9c0.2,7.5,6.5,13.4,14,13.2c7.2-0.2,13-6,13.2-13.2V11.4H32v17.5c0.2,4.5-3.4,8.3-7.8,8.4
			s-8.3-3.4-8.4-7.8c0-0.2,0-0.4,0-0.6V0H0v5.5h10.2V28.9z"/>
		<path class="st1" d="M21.1,0v28.5c-0.1,1.5,1.1,2.8,2.6,2.9c1.5,0.1,2.8-1.1,2.9-2.6c0-0.1,0-0.2,0-0.3v-23h21.1V0H21.1z"/>
		<path class="st2" d="M83.2,33.6c0,2.2,0,4.7,0,6.5h-5.3c-0.1-0.6-0.1-1.8-0.2-2.8c-1.3,2.3-3.3,3.4-6.4,3.4
			c-4.3,0-7.5-2.5-7.5-8.3V17.8h5.4v13.5c0,2.6,0.8,4.9,3.8,4.9c3.3,0,4.6-1.8,4.6-6.6V17.8h5.4L83.2,33.6z"/>
		<path class="st2" d="M88,23.4c0-1.9,0-4,0-5.6h5.3c0.1,0.6,0.2,2.4,0.2,3.1c0.8-1.6,2.6-3.6,6.7-3.6c4.4,0,7.4,2.9,7.4,8.6v14.3
			h-5.4V26.5c0-2.8-1-4.8-4-4.8c-3.2,0-4.7,2.1-4.7,6.2v12.3H88V23.4z"/>
		<path class="st2" d="M112.4,8.3h5.4v5.3h-5.4V8.3z M112.4,17.8h5.4v22.4h-5.4V17.8z"/>
		<path class="st2" d="M128,37.9v10.9h-5.4V23.2c0-1.8,0-3.6,0-5.4h5.3c0.1,1,0.2,2,0.2,3c1-1.9,3.1-3.6,6.8-3.6
			c5.1,0,8.9,4.3,8.9,11.1c0,7.9-4.3,12.3-9.8,12.3C130.6,40.7,128.9,39.4,128,37.9z M138.2,28.6c0-4.3-1.8-7-5.1-7
			c-3.9,0-5.3,2.5-5.3,7.3c0,4.6,1.3,7.4,5.1,7.4C136.4,36.3,138.2,33.5,138.2,28.6L138.2,28.6z"/>
		<path class="st2" d="M147.2,8.3h5.4v5.3h-5.4V8.3z M147.2,17.8h5.4v22.4h-5.4V17.8z"/>
		<path class="st2" d="M161.8,17.8h4V11h3v6.8h5.1v2.6h-5.1v13.8c0,2.3,0.5,3.6,2.6,3.6c0.7,0,1.4-0.1,2.1-0.2V40
			c-1,0.3-2,0.4-3,0.4c-3.1,0-4.7-1.6-4.7-5.2V20.3h-4L161.8,17.8z"/>
		<path class="st2" d="M178.2,29.4c0,5.2,2.7,8.6,6.7,8.6c3.9,0,5.2-2.1,5.9-3.9h3c-0.9,2.9-3.3,6.5-9.1,6.5
			c-6.9,0-9.6-5.8-9.6-11.5c0-6.5,3.3-11.9,9.9-11.9c7,0,9.3,5.9,9.3,10.3c0,0.6,0,1.3,0,1.8L178.2,29.4z M191.4,27.1
			c-0.1-4.1-2.2-7.3-6.3-7.3c-4.3,0-6.2,3-6.7,7.3H191.4z"/>
		<path class="st2" d="M215.8,33.4c-1,3.9-3.6,7.2-8.9,7.2c-5.8,0-9.7-4.3-9.7-11.6c0-6.2,3.4-11.8,10-11.8c6,0,8.3,4.3,8.6,7.3h-3
			c-0.6-2.5-2.2-4.7-5.7-4.7c-4.4,0-6.9,3.7-6.9,9.1s2.4,9.1,6.7,9.1c3.1,0,4.9-1.6,5.9-4.6H215.8z"/>
		<path class="st2" d="M222.6,7.4v13.9c1.4-2.6,4.2-4.2,7.2-4.1c3.4,0,7.5,1.8,7.5,8.6v14.2h-3V26.4c0-4.1-1.8-6.5-5.3-6.5
			c-4.2,0-6.4,2.7-6.4,7.8v12.3h-3V7.4H222.6z"/>
		<path class="st2" d="M243.2,23.4c0-2,0-3.9-0.1-5.6h2.9c0.1,0.7,0.1,3.3,0.1,4c0.9-2.1,2.8-4.5,7.2-4.5c4.1,0,7.5,2.4,7.5,8.5
			v14.4h-3v-14c0-3.7-1.5-6.1-5.2-6.1c-4.8,0-6.6,3.9-6.6,8.6v11.6h-3L243.2,23.4z"/>
		<path class="st2" d="M285.3,28.9c0,6.3-3.5,11.7-10.3,11.7c-6.2,0-10-5-10-11.7c0-6.5,3.6-11.7,10.2-11.7
			C281.4,17.2,285.3,21.9,285.3,28.9z M268.1,28.9c0,5.1,2.7,9.1,7.1,9.1s7-3.7,7-9.1c0-5.2-2.5-9.1-7.1-9.1S268.1,23.7,268.1,28.9
			L268.1,28.9z"/>
		<path class="st2" d="M289.5,40.1V7.4h3v32.7H289.5z"/>
		<path class="st2" d="M317,28.9c0,6.3-3.5,11.7-10.3,11.7c-6.2,0-10-5-10-11.7c0-6.5,3.6-11.7,10.2-11.7
			C313,17.2,317,21.9,317,28.9z M299.8,28.9c0,5.1,2.7,9.1,7.1,9.1s7-3.7,7-9.1c0-5.2-2.5-9.1-7.1-9.1S299.8,23.7,299.8,28.9
			L299.8,28.9z"/>
		<path class="st2" d="M339.1,38.4c0,7.2-3.1,11-9.9,11c-6.3,0-8.5-3.5-9-6.7h3c0.7,2.8,3,4.2,6.1,4.2c5.5,0,6.9-3.5,6.9-8.9v-2
			c-1.2,2.7-3.3,4.2-7.2,4.2c-5.4,0-9.3-4.3-9.3-11.1c0-7.4,4.3-11.7,9.6-11.7c4.4,0,6.3,2.1,6.9,3.7c0-1.2,0.1-2.7,0.2-3.2h2.8
			c0,1-0.1,4.3-0.1,6.5L339.1,38.4z M322.9,28.8c0,5,2.6,8.6,6.6,8.6c5.2,0,6.8-3.5,6.8-8.9s-1.6-8.6-6.7-8.6
			C325,19.9,322.9,23.9,322.9,28.8z"/>
		<path class="st2" d="M345.6,17.8c4.1,11.8,6.1,17.4,6.8,19.8h0c0.8-2.6,2.5-7.8,6.5-19.8h3l-8.2,23.5c-2.3,6.6-4,8.1-8.2,8.1
			c-0.7,0-1.5,0-2.2-0.1v-2.8c0.6,0.1,1.3,0.1,1.9,0.1c3,0,4.1-1.4,5.6-5.6l-8.5-23.3L345.6,17.8z"/>
	</g>
</g>
</svg>
